<?xml version="1.0" encoding="UTF-8"?>
<svg id="Layer_4" data-name="Layer 4" xmlns="http://www.w3.org/2000/svg" viewBox="0 0 1573.52 503.66">
  <defs>
    <style>
      .cls-1 {
        fill: #57ad47;
      }

      .cls-1, .cls-2, .cls-3, .cls-4 {
        stroke-width: 0px;
      }

      .cls-2 {
        fill: #4490af;
      }

      .cls-3 {
        fill: #757576;
      }

      .cls-4 {
        fill: #212121;
      }
    </style>
  </defs>
  <g>
    <polygon class="cls-1" points="221.33 259.96 74.75 437.27 367.9 437.27 221.33 259.96"/>
    <polygon class="cls-1" points="220.9 177.31 367.47 0 74.33 0 220.9 177.31"/>
    <polygon class="cls-2" points="177.31 221.37 0 74.79 0 367.94 177.31 221.37"/>
    <polygon class="cls-2" points="260.22 220.94 437.52 367.51 437.52 74.37 260.22 220.94"/>
  </g>
  <g>
    <path class="cls-3" d="M700.45,86.95c0-25.39.18-49.68.74-62.65h-.56c-5.19,17.42-31.51,81.37-48.01,122.33h-9.82c-12.42-31.7-39.67-102.87-45.6-122.52h-.37c.93,14.83,1.3,45.04,1.3,67.28v55.24h-10.01V16.89h15.01c17.79,44.48,40.22,102.69,45.04,117.33h.37c2.97-9.45,28.91-74.14,47.08-117.33h14.83v129.75h-10.01v-59.68Z"/>
    <path class="cls-3" d="M844.64,111.98c-6.12,20.57-21.31,36.14-48.75,36.14-37.26,0-56.9-29.66-56.9-66.17s19.28-66.91,57.09-66.91c27.99,0,44.48,15.57,48.75,37.26h-10.01c-5.93-16.87-16.87-27.99-39.3-27.99-32.25,0-45.78,29.47-45.78,57.46s13.35,57.09,46.52,57.09c21.13,0,31.88-10.94,38.37-26.88h10.01Z"/>
    <path class="cls-3" d="M929.15,86.03v60.61h-10.19V16.89h46.52c25.58,0,39.11,13.72,39.11,34.1,0,16.5-9.82,27.25-24.28,30.4,13.35,3.15,22.24,11.86,22.24,33.92v5c0,9.08-.74,21.32,1.67,26.32h-10.19c-2.41-5.56-1.85-15.94-1.85-27.06v-3.34c0-21.32-6.3-30.21-31.14-30.21h-31.88ZM929.15,76.76h31.32c22.8,0,33.36-8.53,33.36-25.58,0-15.94-10.38-25.02-30.58-25.02h-34.1v50.6Z"/>
    <path class="cls-3" d="M1108.74,100.11c0,25.76-14.27,48.75-41.89,48.75-25.02,0-40.59-20.57-40.59-48.56,0-26.51,14.64-48.56,41.52-48.56,24.65,0,40.96,19.28,40.96,48.38ZM1036.08,100.3c0,22.06,11.86,39.85,31.51,39.85s31.32-16.5,31.32-39.85c0-21.87-11.12-39.85-31.7-39.85s-31.14,17.61-31.14,39.85Z"/>
    <path class="cls-3" d="M1201.03,119.58c0,9.08.19,23.54.19,27.06h-8.9c-.37-2.41-.56-8.53-.56-16.13-3.89,10.94-13.35,18.35-29.84,18.35-13.35,0-30.4-5.19-30.4-33.55v-61.35h9.08v59.13c0,13.53,4.26,26.69,22.61,26.69,20.76,0,28.54-11.68,28.54-38.18v-47.64h9.27v65.62Z"/>
    <path class="cls-3" d="M1219.74,53.96h17.24v-28.91h9.27v28.91h22.06v8.71h-22.06v60.24c0,10.38,2.22,16.31,11.12,16.31,2.78,0,6.67-.18,9.64-1.11v8.16c-3.15,1.3-7.6,1.67-11.49,1.67-11.86,0-18.54-5.93-18.54-20.76V62.67h-17.24v-8.71Z"/>
    <path class="cls-3" d="M1288.13,101.41c.19,23.91,12.23,38.74,30.03,38.74s23.36-9.82,26.69-17.42h9.45c-3.89,12.23-13.72,26.13-36.51,26.13-28.17,0-39.11-24.28-39.11-47.82,0-26.51,13.16-49.3,40.22-49.3,28.54,0,37.63,24.65,37.63,42.07,0,2.6,0,5.19-.18,7.6h-68.21ZM1346.89,93.26c-.19-18.35-10.19-32.81-28.36-32.81-19.09,0-27.8,13.35-29.84,32.81h58.2Z"/>
  </g>
  <g>
    <path class="cls-4" d="M713.88,337.79c0-43.78.48-98.31,1.25-127.84h-.38c-5.92,44.71-20.18,149.08-31.33,223.69h-37.5c-8.31-66.93-22.71-176.91-28.58-224.03h-.77c.77,30.04,1.97,88.33,1.97,132.64v91.39h-36V175.99h59.2c10.03,65.49,20.36,138.89,23.83,175h.38c4.2-36.55,18.15-113.22,28.47-175h57.21v257.66h-37.75v-95.85Z"/>
    <path class="cls-4" d="M889.63,392.77c0,12.57.05,33.28.77,40.88h-36.3c-.82-3.75-2.22-11.8-2.56-14.64-6.81,12.22-17.59,17.73-32.94,17.73-30.01,0-42.12-27.81-42.12-57.94v-3.47c0-49.19,33.14-62.27,69.12-62.27h4.58v-25.48c0-15.64-1.86-24.43-13.97-24.43s-14.5,9.18-14.5,21.58v3.25h-39.06v-2.57c0-28.9,11.09-54.48,54.96-54.48,38.53,0,52.02,21.26,52.02,53.51v108.35ZM850.91,343.14h-6.62c-18.13,0-30.07,6.86-30.07,31.75v3.13c0,14.08,5.11,24.11,17.51,24.11,13.29,0,19.17-9.19,19.17-36.11v-22.88Z"/>
    <path class="cls-4" d="M923.42,295.59c0-40.56,0-52.54-.39-61.59h37.95c.72,4.58,1.45,12.41,1.45,18.16,5.79-11.59,16.48-21.25,36.8-21.25,24.29,0,41.01,14.74,41.01,52.46v150.27h-39.74v-142.77c0-18.02-6.22-24.34-17.17-24.34-14.14,0-20.18,7.51-20.18,34.63v132.49h-39.74v-138.05Z"/>
    <path class="cls-4" d="M1176.96,392.77c0,12.57.05,33.28.77,40.88h-36.3c-.82-3.75-2.22-11.8-2.56-14.64-6.81,12.22-17.59,17.73-32.94,17.73-30.01,0-42.12-27.81-42.12-57.94v-3.47c0-49.19,33.14-62.27,69.12-62.27h4.58v-25.48c0-15.64-1.86-24.43-13.97-24.43s-14.5,9.18-14.5,21.58v3.25h-39.06v-2.57c0-28.9,11.09-54.48,54.96-54.48,38.53,0,52.02,21.26,52.02,53.51v108.35ZM1138.24,343.14h-6.62c-18.13,0-30.07,6.86-30.07,31.75v3.13c0,14.08,5.11,24.11,17.51,24.11,13.29,0,19.17-9.19,19.17-36.11v-22.88Z"/>
    <path class="cls-4" d="M1322.27,422.51c0,44.27-4.29,81.15-61.13,81.15-47.52,0-55.53-29.83-55.53-51.97v-.82h39.79v.86c0,5.44,2,19.11,17.88,19.11s19.27-12.65,19.27-37.83v-21.8c-5.06,11.06-16.11,18.34-32.88,18.34-36.39,0-44.34-28.28-44.34-62.56v-75.41c0-27.15,10.21-60.68,48.54-60.68,20.98,0,29.61,9.78,32.94,20.69,0-6.03,1.11-14.29,1.84-17.61h34.41c-.38,12.31-.77,28.84-.77,49.88v138.64ZM1245.09,294.01v70.09c0,20.28,4.75,30.53,17.65,30.53,16.95,0,19.84-13.34,19.84-37.81v-58.49c0-17-1.73-31.81-17.77-31.81-12.72,0-19.71,8.14-19.71,27.49Z"/>
    <path class="cls-4" d="M1388.66,344.39v29.33c0,15.43,3.56,29.52,18.65,29.52,15.83,0,17.79-14.16,17.79-28.53v-.95h38.72v.91c0,20.95-4.47,62.06-55.58,62.06s-58.3-31.49-58.3-71.85v-65.43c0-27.31,8.61-68.54,58.09-68.54,42.63,0,56.51,28.75,56.51,68.25v45.24h-75.88ZM1426.5,313.28v-20.44c0-18.47-4.26-28.44-18.51-28.44-12.8,0-18.99,9.08-18.99,28.49v20.39h37.5Z"/>
    <path class="cls-4" d="M1491.14,301.65c0-33.14.34-47.27-.39-67.65h37.65c.39,3.84,1.11,21.6,1.11,32.33,7.91-26.99,25.47-35.23,44-35.32v48.98c-22.79.04-42.65,5.82-42.65,46.73v106.93h-39.74v-131.99Z"/>
  </g>
</svg>